HIERARCHY
ROOT Hips
{
	OFFSET 0.00000 0.00000 0.00000
	CHANNELS 6 Xposition Yposition Zposition Zrotation Yrotation Xrotation 
	JOINT LHipJoint
	{
		OFFSET 0 0 0
		CHANNELS 3 Zrotation Yrotation Xrotation
		JOINT LeftHip
		{
			OFFSET 1.26600 -1.82114 0.91038
			CHANNELS 3 Zrotation Yrotation Xrotation
			JOINT LeftKnee
			{
				OFFSET 2.50076 -6.87080 0.00000
				CHANNELS 3 Zrotation Yrotation Xrotation
				JOINT LeftAnkle
				{
					OFFSET 2.57364 -7.07102 0.00000
					CHANNELS 3 Zrotation Yrotation Xrotation
					JOINT LeftToe
					{
						OFFSET 0.13572 -0.37290 1.97004
						CHANNELS 3 Zrotation Yrotation Xrotation
						End Site
						{
							OFFSET 0.00000 -0.00000 1.01383
						}
					}
				}
			}
		}
	}
	JOINT RHipJoint
	{
		OFFSET 0 0 0
		CHANNELS 3 Zrotation Yrotation Xrotation
		JOINT RightHip
		{
			OFFSET -1.20803 -1.82114 0.91038
			CHANNELS 3 Zrotation Yrotation Xrotation
			JOINT RightKnee
			{
				OFFSET -2.54916 -7.00377 0.00000
				CHANNELS 3 Zrotation Yrotation Xrotation
				JOINT RightAnkle
				{
					OFFSET -2.56374 -7.04382 0.00000
					CHANNELS 3 Zrotation Yrotation Xrotation
					JOINT RightToe
					{
						OFFSET -0.23520 -0.64621 2.09921
						CHANNELS 3 Zrotation Yrotation Xrotation
						End Site
						{
							OFFSET -0.00000 -0.00000 1.10065
						}
					}
				}
			}
		}
	}
	JOINT lowerback
	{
		OFFSET 0 0 0
		CHANNELS 3 Zrotation Yrotation Xrotation
		JOINT Chest
		{
			OFFSET 0.05492 2.10797 -0.12074
			CHANNELS 3 Zrotation Yrotation Xrotation
			JOINT Chest2
			{
				OFFSET 0.04577 2.11592 -0.04483
				CHANNELS 3 Zrotation Yrotation Xrotation
				JOINT lowerneck
				{
					OFFSET 0 0 0
					CHANNELS 3 Zrotation Yrotation Xrotation
					JOINT Neck
					{
						OFFSET -0.10759 1.80167 0.15770
						CHANNELS 3 Zrotation Yrotation Xrotation
						JOINT Head
						{
							OFFSET 0.09237 1.77509 -0.40848
							CHANNELS 3 Zrotation Yrotation Xrotation
							End Site
							{
								OFFSET 0.03805 1.84093 -0.15754
							}
						}
					}
				}
				JOINT LeftCollar
				{
					OFFSET 0 0 0
					CHANNELS 3 Zrotation Yrotation Xrotation
					JOINT LeftShoulder
					{
						OFFSET 3.42372 1.09575 -0.28209
CHANNELS 3 Zrotation Xrotation Yrotation
						JOINT LeftElbow
						{
OFFSET 0 -4.956810 0.000000
CHANNELS 3 Zrotation Xrotation Yrotation
							JOINT LeftWrist
							{
OFFSET 0 -3.409150 0.000000
CHANNELS 3 Zrotation Xrotation Yrotation
								JOINT lhand
								{
									OFFSET 0 0 0
CHANNELS 3 Zrotation Xrotation Yrotation
									JOINT LFingers
									{
OFFSET 0 -0.616400 0.000000
CHANNELS 3 Zrotation Xrotation Yrotation
										End Site
										{
OFFSET 0 -0.496960 0.000000
										}
									}
								}
								JOINT LThumb
								{
OFFSET 0 0.000000 0.000000
CHANNELS 3 Zrotation Xrotation Yrotation
									End Site
									{
OFFSET 0 -0.504550 0.504550
									}
								}
							}
						}
					}
				}
				JOINT RightCollar
				{
					OFFSET 0 0 0
					CHANNELS 3 Zrotation Yrotation Xrotation
					JOINT RightShoulder
					{
						OFFSET -3.24731 1.15872 -0.32221
CHANNELS 3 Zrotation Xrotation Yrotation
						JOINT RightElbow
						{
OFFSET 0 -5.352000 0.000000
CHANNELS 3 Zrotation Xrotation Yrotation
							JOINT RightWrist
							{
OFFSET 0 -3.437210 -0.000000
CHANNELS 3 Zrotation Xrotation Yrotation
								JOINT rhand
								{
									OFFSET 0 0 0
CHANNELS 3 Zrotation Xrotation Yrotation
									JOINT RFingers
									{
OFFSET 0 -0.720090 0.000000
CHANNELS 3 Zrotation Xrotation Yrotation
										End Site
										{
OFFSET 0 -0.580560 0.000000
										}
									}
								}
								JOINT RThumb
								{
OFFSET 0 0.000000 0.000000
CHANNELS 3 Zrotation Xrotation Yrotation
									End Site
									{
OFFSET 0 -0.589420 0.589420
									}
								}
							}
						}
					}
				}
			}
		}
	}
}
MOTION
Frames: 5
Frame Time: 0.008333333333333333
30.286044 17.461148 12.422241 -9.965759 -2.599345 355.810297 0.000000 0.000000 0.000000 -2.216563 -11.121264 -23.983190 1.463689 7.646049 21.644111 -0.050668 -11.209036 -7.073632 0.574498 -4.830646 -13.430621 0.000000 0.000000 0.000000 32.536053 -3.779994 15.193401 -1.170855 -6.866856 19.322147 -1.003603 4.722255 -17.943630 -0.046004 1.376323 -3.785021 9.017319 1.855503 6.002979 4.360398 2.962880 3.087656 -0.690170 1.547102 0.072490 -9.313880 -3.059677 -12.671645 5.350129 -3.841551 37.165234 3.309684 -2.197044 15.490163 0.000000 0.000000 0.000000 0.284086 8.684017 -16.645463 15.971827 -25.481388 3.634432 19.452483 4.078036 -22.399012 0.000000 0.000000 0.000000 -7.125000 0.000000 0.000000 -9.882144 53.320621 2.039398 0.000000 0.000000 0.000000 -7.452438 -1.048777 15.850211 -20.430285 -31.156958 -5.752503 -24.515516 -23.501695 -11.756557 0.000000 0.000000 0.000000 7.125000 0.000000 0.000000 1.855060 17.100249 1.229261
30.501924 17.501491 13.413689 -9.139403 -3.781054 355.059888 0.000000 0.000000 0.000000 -4.408476 -8.368341 -22.383766 1.677029 8.158250 23.195756 -0.310483 -10.239332 0.703249 0.409388 -4.094822 -11.345280 0.000000 0.000000 0.000000 30.250261 -4.160305 16.208162 -1.926683 -8.708485 24.889495 -0.650118 5.254974 -14.354521 -0.271943 3.354357 -9.266903 8.232672 1.948813 6.091102 4.076338 3.077673 2.802154 -0.572877 1.580443 -0.295964 -9.048832 -2.982276 -12.884240 5.386250 -3.837828 37.832779 3.300767 -2.169367 15.868691 0.000000 0.000000 0.000000 -0.888790 8.880327 -13.317921 12.487736 -20.531139 2.271158 16.918620 7.492128 -22.421065 0.000000 0.000000 0.000000 -7.125000 0.000000 0.000000 -12.424670 52.882982 2.439451 0.000000 0.000000 0.000000 -6.370987 0.493798 14.144125 -18.720751 -29.069904 -4.894500 -23.716663 -21.670762 -12.985770 0.000000 0.000000 0.000000 7.125000 0.000000 0.000000 2.477334 15.851268 1.708392
30.703803 17.666275 14.340373 -6.240844 -2.817464 354.195048 0.000000 0.000000 0.000000 -9.625853 -4.840372 -19.266837 1.649474 8.094121 23.000365 -0.624865 -13.842505 4.912282 0.055413 -1.485528 -4.086455 0.000000 0.000000 0.000000 25.382965 -5.736863 10.815734 -4.400109 -12.669780 38.152145 -0.040659 3.418580 -3.936752 -0.083312 -1.334877 3.676845 5.279977 1.362538 6.207453 3.191192 2.141766 2.803521 0.190510 1.092209 -0.512039 -8.780611 -2.791131 -13.314629 5.388793 -3.616712 38.054196 3.297675 -2.044007 16.053165 0.000000 0.000000 0.000000 -1.523208 8.682061 -10.665215 10.387493 -17.343237 1.588700 15.110277 10.786986 -21.884186 0.000000 0.000000 0.000000 -7.125000 0.000000 0.000000 -13.977383 52.033248 2.460178 0.000000 0.000000 0.000000 -4.663438 1.373311 9.135132 -16.352066 -25.994219 -3.799779 -21.707184 -14.677228 -10.989808 0.000000 0.000000 0.000000 7.125000 0.000000 0.000000 3.789952 18.188669 2.422559
30.880794 17.919368 15.098497 -2.981831 -3.896127 354.270523 0.000000 0.000000 0.000000 -14.333777 -2.251088 -14.611937 1.135736 6.767677 19.029146 -0.600630 -13.578567 4.775432 0.000972 -0.189205 -0.519840 0.000000 0.000000 0.000000 20.810921 -4.275864 2.134307 -8.094605 -16.186389 52.899484 -0.109509 -3.240377 5.971895 -0.233716 -3.111150 8.588372 2.351221 1.426136 6.487894 2.114737 2.061426 2.805593 0.711440 1.034372 -0.739501 -8.853425 -2.684634 -13.635093 5.637884 -3.504408 37.587989 3.420048 -1.969386 15.885425 0.000000 0.000000 0.000000 -0.860381 7.845776 -11.842672 10.353056 -17.289986 1.578270 13.701982 12.745315 -21.069372 0.000000 0.000000 0.000000 -7.125000 0.000000 0.000000 -14.996433 50.997701 2.259385 0.000000 0.000000 0.000000 -3.210051 2.136236 7.064237 -14.347405 -23.228895 -2.963900 -21.095196 -12.880128 -12.383421 0.000000 0.000000 0.000000 7.125000 0.000000 0.000000 4.263628 16.760781 2.861205
30.969498 18.106286 15.681635 -1.885005 -4.122604 355.259910 0.000000 0.000000 0.000000 -16.322417 0.528084 -11.611385 0.630791 5.081387 14.140855 -0.649496 -14.158587 6.609047 0.007036 0.538880 1.480863 0.000000 0.000000 0.000000 19.934766 -4.079573 -7.226191 -10.881733 -17.876535 62.396701 0.344891 -10.726603 -6.908795 -0.676025 -5.256350 14.641362 1.042758 1.104975 6.733530 1.833759 1.560696 2.694508 1.183304 0.776181 -1.020337 -8.686463 -2.521140 -14.412655 5.249981 -3.089202 37.310442 3.279400 -1.815455 15.877118 0.000000 0.000000 0.000000 0.520945 6.870916 -16.652482 12.743804 -20.910269 2.361363 14.598614 8.951517 -21.156487 0.000000 0.000000 0.000000 -7.125000 0.000000 0.000000 -14.168867 51.230498 2.211930 0.000000 0.000000 0.000000 -2.525134 2.390974 7.742206 -13.490072 -22.001041 -2.634049 -18.558273 -9.828649 -11.881787 0.000000 0.000000 0.000000 7.125000 0.000000 0.000000 6.019220 17.507797 3.950064
